<svg width="101" height="90" viewBox="0 0 101 90" fill="none" xmlns="http://www.w3.org/2000/svg">
<path d="M53.48 61.648L52.136 63.568L75.496 2.128C75.752 1.40266 75.9867 0.933327 76.2 0.719994C76.456 0.50666 76.7973 0.399994 77.224 0.399994H94.888C95.0587 0.399994 95.1867 0.44266 95.272 0.527992C95.3573 0.570661 95.4 0.655996 95.4 0.783997C95.4 0.869329 95.3573 0.954661 95.272 1.03999C95.1867 1.12533 95.016 1.18933 94.76 1.23199L88.424 2.128C87.784 2.25599 87.3147 2.55466 87.016 3.02399C86.7173 3.49333 86.5893 4.13333 86.632 4.94399L92.392 85.84C92.4773 86.6933 92.6267 87.2907 92.84 87.632C93.096 87.9733 93.608 88.208 94.376 88.336L100.264 89.168C100.52 89.2107 100.691 89.2747 100.776 89.36C100.861 89.4027 100.904 89.488 100.904 89.616C100.904 89.7013 100.861 89.7867 100.776 89.872C100.691 89.9573 100.563 90 100.392 90H70.952C70.7813 90 70.632 89.9573 70.504 89.872C70.4187 89.7867 70.376 89.7013 70.376 89.616C70.376 89.488 70.4187 89.4027 70.504 89.36C70.632 89.2747 70.824 89.2107 71.08 89.168L76.968 88.336C77.7787 88.208 78.3547 87.9733 78.696 87.632C79.0373 87.248 79.1867 86.6507 79.144 85.84L73.576 8.144L74.536 7.696L48.232 79.12C48.0187 79.6747 47.8267 80.0373 47.656 80.208C47.4853 80.3787 47.3147 80.464 47.144 80.464C47.0587 80.464 46.952 80.4213 46.824 80.336C46.696 80.2507 46.568 80.1227 46.44 79.952C46.3547 79.7387 46.248 79.4613 46.12 79.12L17.576 8.71999L18.344 7.24799L13.352 81.936C13.2667 83.4293 13.672 84.688 14.568 85.712C15.464 86.736 16.744 87.4613 18.408 87.888L25.64 89.168C25.8533 89.2107 26.0027 89.2747 26.088 89.36C26.1733 89.4027 26.216 89.488 26.216 89.616C26.216 89.7013 26.1733 89.7867 26.088 89.872C26.0453 89.9573 25.9387 90 25.768 90H1.448C1.27733 90 1.14933 89.9573 1.064 89.872C0.978667 89.7867 0.936 89.7013 0.936 89.616C0.936 89.488 1 89.4027 1.128 89.36C1.256 89.2747 1.40533 89.2107 1.576 89.168L6.632 87.952C8.296 87.4827 9.61867 86.7573 10.6 85.776C11.5813 84.752 12.1147 83.4293 12.2 81.808L17.128 8.528C17.3413 6.608 17.2773 5.11466 16.936 4.048C16.6373 2.98133 15.976 2.384 14.952 2.256L9.704 1.488C9.192 1.40266 8.808 1.33866 8.552 1.296C8.296 1.21067 8.168 1.08266 8.168 0.911995C8.168 0.570661 8.53067 0.399994 9.256 0.399994H27.176C27.6027 0.399994 27.9227 0.50666 28.136 0.719994C28.392 0.890663 28.6267 1.296 28.84 1.936L53.48 61.648Z" fill="#979797"/>
</svg>
