<svg width="433" height="127" viewBox="0 0 433 127" fill="none" xmlns="http://www.w3.org/2000/svg">
<path d="M53.48 66.648L52.136 68.568L75.496 7.128C75.752 6.40266 75.9867 5.93333 76.2 5.71999C76.456 5.50666 76.7973 5.39999 77.224 5.39999H94.888C95.0587 5.39999 95.1867 5.44266 95.272 5.52799C95.3573 5.57066 95.4 5.656 95.4 5.784C95.4 5.86933 95.3573 5.95466 95.272 6.03999C95.1867 6.12533 95.016 6.18933 94.76 6.23199L88.424 7.128C87.784 7.25599 87.3147 7.55466 87.016 8.02399C86.7173 8.49333 86.5893 9.13333 86.632 9.94399L92.392 90.84C92.4773 91.6933 92.6267 92.2907 92.84 92.632C93.096 92.9733 93.608 93.208 94.376 93.336L100.264 94.168C100.52 94.2107 100.691 94.2747 100.776 94.36C100.861 94.4027 100.904 94.488 100.904 94.616C100.904 94.7013 100.861 94.7867 100.776 94.872C100.691 94.9573 100.563 95 100.392 95H70.952C70.7813 95 70.632 94.9573 70.504 94.872C70.4187 94.7867 70.376 94.7013 70.376 94.616C70.376 94.488 70.4187 94.4027 70.504 94.36C70.632 94.2747 70.824 94.2107 71.08 94.168L76.968 93.336C77.7787 93.208 78.3547 92.9733 78.696 92.632C79.0373 92.248 79.1867 91.6507 79.144 90.84L73.576 13.144L74.536 12.696L48.232 84.12C48.0187 84.6747 47.8267 85.0373 47.656 85.208C47.4853 85.3787 47.3147 85.464 47.144 85.464C47.0587 85.464 46.952 85.4213 46.824 85.336C46.696 85.2507 46.568 85.1227 46.44 84.952C46.3547 84.7387 46.248 84.4613 46.12 84.12L17.576 13.72L18.344 12.248L13.352 86.936C13.2667 88.4293 13.672 89.688 14.568 90.712C15.464 91.736 16.744 92.4613 18.408 92.888L25.64 94.168C25.8533 94.2107 26.0027 94.2747 26.088 94.36C26.1733 94.4027 26.216 94.488 26.216 94.616C26.216 94.7013 26.1733 94.7867 26.088 94.872C26.0453 94.9573 25.9387 95 25.768 95H1.448C1.27733 95 1.14933 94.9573 1.064 94.872C0.978667 94.7867 0.936 94.7013 0.936 94.616C0.936 94.488 1 94.4027 1.128 94.36C1.256 94.2747 1.40533 94.2107 1.576 94.168L6.632 92.952C8.296 92.4827 9.61867 91.7573 10.6 90.776C11.5813 89.752 12.1147 88.4293 12.2 86.808L17.128 13.528C17.3413 11.608 17.2773 10.1147 16.936 9.048C16.6373 7.98133 15.976 7.384 14.952 7.256L9.704 6.488C9.192 6.40266 8.808 6.33866 8.552 6.296C8.296 6.21067 8.168 6.08266 8.168 5.91199C8.168 5.57066 8.53067 5.39999 9.256 5.39999H27.176C27.6027 5.39999 27.9227 5.50666 28.136 5.71999C28.392 5.89066 28.6267 6.296 28.84 6.936L53.48 66.648ZM135.307 84.312L129.611 98.776L108.555 47.704C107.531 45.3147 106.358 43.544 105.035 42.392C103.755 41.1973 102.262 40.472 100.555 40.216C100.214 40.1733 100 40.1093 99.915 40.024C99.8297 39.9387 99.787 39.8533 99.787 39.768C99.787 39.5973 99.851 39.4907 99.979 39.448C100.064 39.4053 100.171 39.384 100.299 39.384H126.091C126.262 39.384 126.39 39.4267 126.475 39.512C126.56 39.5547 126.603 39.6613 126.603 39.832C126.603 39.96 126.56 40.0667 126.475 40.152C126.39 40.2373 126.24 40.28 126.027 40.28L120.907 40.92C119.926 41.048 119.328 41.496 119.115 42.264C118.902 42.9893 119.03 43.928 119.499 45.08L135.307 84.312ZM123.915 111.96L131.275 93.272L132.043 91.352L149.003 47.64C149.856 45.4213 150.048 43.8427 149.579 42.904C149.152 41.9227 148.15 41.2827 146.571 40.984L142.859 40.344C142.603 40.3013 142.411 40.2587 142.283 40.216C142.198 40.1307 142.155 40.024 142.155 39.896C142.155 39.7253 142.198 39.5973 142.283 39.512C142.368 39.4267 142.496 39.384 142.667 39.384H158.347C158.56 39.384 158.71 39.4267 158.795 39.512C158.923 39.5973 158.987 39.704 158.987 39.832C158.987 39.96 158.923 40.0667 158.795 40.152C158.71 40.1947 158.539 40.2373 158.283 40.28C156.192 40.6213 154.507 41.3467 153.227 42.456C151.947 43.5227 150.859 45.2293 149.963 47.576L124.555 112.536C123.318 115.736 122.187 118.36 121.163 120.408C120.182 122.456 119.03 123.949 117.707 124.888C116.427 125.869 114.72 126.36 112.587 126.36C109.771 126.36 107.488 125.528 105.739 123.864C104.032 122.2 103.179 120.152 103.179 117.72C103.179 116.099 103.627 114.797 104.523 113.816C105.419 112.877 106.528 112.408 107.851 112.408C109.046 112.408 110.027 112.813 110.795 113.624C111.563 114.435 112.118 115.565 112.459 117.016L112.971 119.192C113.184 120.344 113.568 121.347 114.123 122.2C114.678 123.096 115.424 123.544 116.363 123.544C117.174 123.544 117.963 123.117 118.731 122.264C119.499 121.411 120.31 120.109 121.163 118.36C122.016 116.611 122.934 114.477 123.915 111.96ZM231.801 38.424C231.801 44.2267 230.5 49.2827 227.897 53.592C225.337 57.8587 221.753 61.1867 217.145 63.576C212.58 65.9227 207.289 67.096 201.273 67.096C197.092 67.096 193.23 66.6053 189.689 65.624C186.19 64.6 182.948 63.0213 179.961 60.888L180.217 60.12C182.18 61.4853 184.142 62.5733 186.105 63.384C188.11 64.152 190.073 64.7067 191.993 65.048C193.913 65.3467 195.726 65.496 197.433 65.496C201.657 65.496 205.369 64.3867 208.569 62.168C211.769 59.9067 214.286 56.728 216.121 52.632C217.956 48.4933 218.873 43.6507 218.873 38.104C218.873 31.448 217.678 25.7733 215.289 21.08C212.942 16.344 209.7 12.7173 205.561 10.2C201.422 7.68266 196.665 6.424 191.289 6.424H184.313V91.608C184.313 92.0773 184.462 92.44 184.761 92.696C185.102 92.952 185.614 93.144 186.297 93.272L192.633 94.232C192.804 94.2747 192.932 94.3173 193.017 94.36C193.145 94.4027 193.209 94.488 193.209 94.616C193.209 94.744 193.166 94.8507 193.081 94.936C192.996 94.9787 192.846 95 192.633 95H162.809C162.638 95 162.489 94.9787 162.361 94.936C162.276 94.8507 162.233 94.744 162.233 94.616C162.233 94.4027 162.425 94.2533 162.809 94.168L169.145 93.272C169.828 93.144 170.318 92.952 170.617 92.696C170.958 92.3973 171.129 92.056 171.129 91.672V8.92C171.129 8.45066 170.98 8.06666 170.681 7.768C170.382 7.42666 169.913 7.21333 169.273 7.128L162.745 6.168C162.404 6.12533 162.233 5.99733 162.233 5.784C162.233 5.656 162.276 5.57066 162.361 5.52799C162.489 5.44266 162.638 5.39999 162.809 5.39999H191.289C199.31 5.39999 206.35 6.76533 212.409 9.49599C218.51 12.2267 223.268 16.088 226.681 21.08C230.094 26.0293 231.801 31.8107 231.801 38.424ZM284.758 61.208C284.758 61.5493 284.651 61.8267 284.438 62.04C284.225 62.2533 283.905 62.36 283.478 62.36H243.99V61.4H272.342C273.025 61.4 273.366 61.0373 273.366 60.312C273.366 53.2293 272.214 47.896 269.91 44.312C267.649 40.728 264.79 38.936 261.334 38.936C258.305 38.936 255.723 39.8747 253.59 41.752C251.457 43.5867 249.814 46.296 248.662 49.88C247.51 53.4213 246.934 57.7733 246.934 62.936C246.934 71.7253 248.811 78.4027 252.566 82.968C256.321 87.5333 261.206 89.816 267.222 89.816C271.446 89.816 275.094 88.5787 278.166 86.104C281.238 83.6293 283.073 80.2587 283.67 75.992C283.67 75.8213 283.713 75.7147 283.798 75.672C283.883 75.5867 283.947 75.544 283.99 75.544C284.075 75.544 284.161 75.5867 284.246 75.672C284.331 75.7147 284.374 75.864 284.374 76.12C283.99 79.96 282.753 83.416 280.662 86.488C278.614 89.5173 275.926 91.9067 272.598 93.656C269.313 95.4053 265.622 96.28 261.526 96.28C256.534 96.28 252.139 95.1493 248.342 92.888C244.587 90.6267 241.643 87.4053 239.51 83.224C237.419 79.0427 236.374 74.1147 236.374 68.44C236.374 62.552 237.462 57.3253 239.638 52.76C241.814 48.1947 244.865 44.6107 248.79 42.008C252.758 39.3627 257.387 38.04 262.678 38.04C267.158 38.04 271.041 39.0427 274.326 41.048C277.611 43.0533 280.171 45.8053 282.006 49.304C283.841 52.76 284.758 56.728 284.758 61.208ZM331.602 87.128V86.808V6.936C331.602 6.72266 331.538 6.552 331.41 6.424C331.325 6.296 331.133 6.23199 330.834 6.23199H325.842C325.714 6.23199 325.607 6.18933 325.522 6.104C325.437 6.01866 325.394 5.912 325.394 5.784C325.394 5.656 325.437 5.57066 325.522 5.52799C325.607 5.44266 325.735 5.37866 325.906 5.336L341.266 1.048C341.607 0.919996 341.842 0.855995 341.97 0.855995C342.098 0.813327 342.226 0.791992 342.354 0.791992C342.567 0.791992 342.717 0.877327 342.802 1.048C342.93 1.176 342.994 1.32533 342.994 1.49599V91.672C342.994 92.184 343.101 92.6107 343.314 92.952C343.57 93.2507 343.975 93.4427 344.53 93.528L348.562 94.168C348.818 94.168 348.989 94.2107 349.074 94.296C349.159 94.3813 349.202 94.488 349.202 94.616C349.202 94.7013 349.159 94.7867 349.074 94.872C348.989 94.9573 348.861 95 348.69 95H333.394C332.839 95 332.391 94.8293 332.05 94.488C331.751 94.1467 331.602 93.6133 331.602 92.888V87.128ZM290.45 68.632C290.45 62.2747 291.645 56.8133 294.034 52.248C296.466 47.6827 299.645 44.184 303.57 41.752C307.538 39.32 311.869 38.104 316.562 38.104C320.914 38.104 324.562 39.0427 327.506 40.92C330.493 42.7547 332.882 45.208 334.674 48.28L333.714 48.728C332.263 45.9973 330.279 43.8213 327.762 42.2C325.287 40.536 322.343 39.704 318.93 39.704C315.815 39.704 312.978 40.6853 310.418 42.648C307.858 44.6107 305.81 47.64 304.274 51.736C302.738 55.832 301.97 61.08 301.97 67.48C301.97 73.24 302.631 78.04 303.954 81.88C305.319 85.72 307.175 88.6213 309.522 90.584C311.869 92.504 314.578 93.464 317.65 93.464C319.911 93.464 322.322 92.8453 324.882 91.608C327.485 90.328 330.002 88.1947 332.434 85.208L333.01 85.848C329.639 89.7307 326.461 92.44 323.474 93.976C320.487 95.512 317.245 96.28 313.746 96.28C309.309 96.28 305.319 95.1493 301.778 92.888C298.279 90.6267 295.506 87.4267 293.458 83.288C291.453 79.1493 290.45 74.264 290.45 68.632ZM370.355 39.064V91.672C370.355 92.184 370.483 92.6107 370.739 92.952C370.995 93.2507 371.379 93.4427 371.891 93.528L375.923 94.168C376.179 94.168 376.35 94.2107 376.435 94.296C376.52 94.3813 376.563 94.488 376.563 94.616C376.563 94.7013 376.52 94.7867 376.435 94.872C376.35 94.9573 376.222 95 376.051 95H353.075C352.99 95 352.883 94.9573 352.755 94.872C352.67 94.7867 352.627 94.7013 352.627 94.616C352.627 94.5307 352.67 94.4667 352.755 94.424C352.84 94.3387 352.99 94.2747 353.203 94.232L357.427 93.528C357.982 93.4427 358.387 93.2507 358.643 92.952C358.899 92.6107 359.027 92.2267 359.027 91.8V44.504C359.027 44.2907 358.963 44.12 358.835 43.992C358.75 43.864 358.558 43.8 358.259 43.8H353.267C353.096 43.8 352.968 43.7573 352.883 43.672C352.84 43.5867 352.819 43.48 352.819 43.352C352.819 43.224 352.862 43.1387 352.947 43.096C353.032 43.0107 353.139 42.9467 353.267 42.904L368.627 38.616C368.968 38.488 369.203 38.424 369.331 38.424C369.459 38.3813 369.608 38.36 369.779 38.36C369.95 38.36 370.078 38.4453 370.163 38.616C370.291 38.744 370.355 38.8933 370.355 39.064ZM364.339 28.056C362.248 28.056 360.542 27.352 359.219 25.944C357.939 24.4933 357.299 22.7227 357.299 20.632C357.299 18.5413 357.96 16.792 359.283 15.384C360.606 13.9333 362.291 13.208 364.339 13.208C366.472 13.208 368.2 13.9333 369.523 15.384C370.888 16.8347 371.571 18.584 371.571 20.632C371.571 22.7227 370.888 24.4933 369.523 25.944C368.158 27.352 366.43 28.056 364.339 28.056ZM414.538 89.048V88.6L414.09 89.048V50.584C414.09 46.744 413.322 43.8213 411.786 41.816C410.293 39.8107 408.053 38.808 405.066 38.808C401.738 38.808 399.306 39.5973 397.77 41.176C396.234 42.712 395.466 44.3547 395.466 46.104V50.52C395.466 52.2693 394.869 53.72 393.674 54.872C392.522 55.9813 391.05 56.536 389.258 56.536C387.935 56.536 386.826 56.1093 385.93 55.256C385.077 54.36 384.65 53.0587 384.65 51.352C384.65 49.176 385.482 47.064 387.146 45.016C388.81 42.968 391.242 41.304 394.442 40.024C397.685 38.7013 401.653 38.04 406.346 38.04C412.789 38.04 417.589 39.448 420.746 42.264C423.903 45.08 425.482 49.0267 425.482 54.104V88.088C425.482 89.8373 425.759 91.096 426.314 91.864C426.869 92.5893 427.573 92.952 428.426 92.952C429.237 92.952 429.941 92.7173 430.538 92.248C431.135 91.7787 431.498 91.0533 431.626 90.072C431.626 89.944 431.647 89.8587 431.69 89.816C431.775 89.7733 431.861 89.752 431.946 89.752C432.031 89.752 432.095 89.7733 432.138 89.816C432.181 89.8587 432.202 89.944 432.202 90.072C432.202 90.7973 431.903 91.6293 431.306 92.568C430.709 93.5067 429.727 94.3173 428.362 95C427.039 95.7253 425.29 96.088 423.114 96.088C420.213 96.088 418.058 95.448 416.65 94.168C415.242 92.888 414.538 91.1813 414.538 89.048ZM381.578 82.712C381.578 78.36 383.391 74.7973 387.018 72.024C390.687 69.208 396.234 67.8 403.658 67.8C406.687 67.8 409.183 68.0987 411.146 68.696C413.109 69.2507 414.943 69.9333 416.65 70.744L416.202 71.192C414.538 70.424 412.789 69.8053 410.954 69.336C409.162 68.8667 407.157 68.632 404.938 68.632C401.098 68.632 398.154 69.7413 396.106 71.96C394.101 74.1787 393.098 77.1867 393.098 80.984C393.098 84.696 394.058 87.5973 395.978 89.688C397.898 91.736 400.394 92.76 403.466 92.76C405.642 92.76 407.775 92.312 409.866 91.416C411.957 90.4773 413.706 89.0907 415.114 87.256L415.754 87.64C413.834 90.3707 411.253 92.4827 408.01 93.976C404.767 95.4267 401.269 96.152 397.514 96.152C392.735 96.152 388.874 94.9147 385.93 92.44C383.029 89.9227 381.578 86.68 381.578 82.712Z" fill="#151515"/>
</svg>
